<svg xmlns="http://www.w3.org/2000/svg" width="1280" height="532" viewBox="0 0 1280 532" role="img" aria-label="L21202 AI 導入規劃 考點資訊圖表">
<rect width="1280" height="532" fill="#fffaf0"/>
<rect x="24" y="24" width="1232" height="484" rx="30" fill="#ffffff" stroke="#d9d3c7"/>
<text x="54" y="78" font-family="Noto Sans TC, PingFang TC, sans-serif" font-size="30" font-weight="800" fill="#17211f">L21202 AI 導入規劃</text>
<text x="54" y="116" font-family="Noto Sans TC, PingFang TC, sans-serif" font-size="18" fill="#65716d">科目一：AI 技術應用與規劃 · 7 個名詞 · 依考點屬性分群</text>
<rect x="54" y="156" width="1172" height="144" rx="22" fill="#e3ecff" stroke="#2563eb" stroke-opacity="0.22"/>
<text x="76" y="190" font-family="Noto Sans TC, PingFang TC, sans-serif" font-size="20" font-weight="800" fill="#2563eb">公式/指標 (5)</text>
<rect x="76" y="210" width="176" height="58" rx="14" fill="#fffefa" stroke="#2563eb" stroke-opacity="0.18"/>
<text x="88" y="234" font-family="Noto Sans TC, PingFang TC, sans-serif" font-size="15" font-weight="700" fill="#17211f">AI 導入評估三層 + POC</text>
<text x="88" y="254" font-family="Noto Sans TC, PingFang TC, sans-serif" font-size="15" font-weight="700" fill="#17211f"> 條件</text>
<rect x="266" y="210" width="176" height="58" rx="14" fill="#fffefa" stroke="#2563eb" stroke-opacity="0.18"/>
<text x="278" y="234" font-family="Noto Sans TC, PingFang TC, sans-serif" font-size="15" font-weight="700" fill="#17211f">NPV</text>
<rect x="456" y="210" width="176" height="58" rx="14" fill="#fffefa" stroke="#2563eb" stroke-opacity="0.18"/>
<text x="468" y="234" font-family="Noto Sans TC, PingFang TC, sans-serif" font-size="15" font-weight="700" fill="#17211f">POC</text>
<rect x="646" y="210" width="176" height="58" rx="14" fill="#fffefa" stroke="#2563eb" stroke-opacity="0.18"/>
<text x="658" y="234" font-family="Noto Sans TC, PingFang TC, sans-serif" font-size="15" font-weight="700" fill="#17211f">POC 條件</text>
<rect x="836" y="210" width="176" height="58" rx="14" fill="#fffefa" stroke="#2563eb" stroke-opacity="0.18"/>
<text x="848" y="234" font-family="Noto Sans TC, PingFang TC, sans-serif" font-size="15" font-weight="700" fill="#17211f">ROI</text>
<rect x="54" y="322" width="1172" height="144" rx="22" fill="#ffe3ea" stroke="#be123c" stroke-opacity="0.22"/>
<text x="76" y="356" font-family="Noto Sans TC, PingFang TC, sans-serif" font-size="20" font-weight="800" fill="#be123c">流程/架構 (2)</text>
<rect x="76" y="376" width="176" height="58" rx="14" fill="#fffefa" stroke="#be123c" stroke-opacity="0.18"/>
<text x="88" y="400" font-family="Noto Sans TC, PingFang TC, sans-serif" font-size="15" font-weight="700" fill="#17211f">AI 導入規劃</text>
<rect x="266" y="376" width="176" height="58" rx="14" fill="#fffefa" stroke="#be123c" stroke-opacity="0.18"/>
<text x="278" y="400" font-family="Noto Sans TC, PingFang TC, sans-serif" font-size="15" font-weight="700" fill="#17211f">AI 導入評估三層</text>
</svg>