<svg xmlns="http://www.w3.org/2000/svg" width="1280" height="936" viewBox="0 0 1280 936" role="img" aria-label="L22101 敘述性統計與資料摘要技術 考點資訊圖表">
<rect width="1280" height="936" fill="#fffaf0"/>
<rect x="24" y="24" width="1232" height="888" rx="30" fill="#ffffff" stroke="#d9d3c7"/>
<text x="54" y="78" font-family="Noto Sans TC, PingFang TC, sans-serif" font-size="30" font-weight="800" fill="#17211f">L22101 敘述性統計與資料摘要技術</text>
<text x="54" y="116" font-family="Noto Sans TC, PingFang TC, sans-serif" font-size="18" fill="#65716d">科目二：大數據處理分析與應用 · 24 個名詞 · 依考點屬性分群</text>
<rect x="54" y="156" width="1172" height="144" rx="22" fill="#dff8f3" stroke="#0f766e" stroke-opacity="0.22"/>
<text x="76" y="190" font-family="Noto Sans TC, PingFang TC, sans-serif" font-size="20" font-weight="800" fill="#0f766e">模型/演算法 (4)</text>
<rect x="76" y="210" width="176" height="58" rx="14" fill="#fffefa" stroke="#0f766e" stroke-opacity="0.18"/>
<text x="88" y="234" font-family="Noto Sans TC, PingFang TC, sans-serif" font-size="15" font-weight="700" fill="#17211f">偏度</text>
<rect x="266" y="210" width="176" height="58" rx="14" fill="#fffefa" stroke="#0f766e" stroke-opacity="0.18"/>
<text x="278" y="234" font-family="Noto Sans TC, PingFang TC, sans-serif" font-size="15" font-weight="700" fill="#17211f">離群值</text>
<rect x="456" y="210" width="176" height="58" rx="14" fill="#fffefa" stroke="#0f766e" stroke-opacity="0.18"/>
<text x="468" y="234" font-family="Noto Sans TC, PingFang TC, sans-serif" font-size="15" font-weight="700" fill="#17211f">Kurtosis</text>
<rect x="646" y="210" width="176" height="58" rx="14" fill="#fffefa" stroke="#0f766e" stroke-opacity="0.18"/>
<text x="658" y="234" font-family="Noto Sans TC, PingFang TC, sans-serif" font-size="15" font-weight="700" fill="#17211f">Z-score</text>
<rect x="54" y="322" width="1172" height="144" rx="22" fill="#fff1d6" stroke="#b45309" stroke-opacity="0.22"/>
<text x="76" y="356" font-family="Noto Sans TC, PingFang TC, sans-serif" font-size="20" font-weight="800" fill="#b45309">資料/特徵 (5)</text>
<rect x="76" y="376" width="176" height="58" rx="14" fill="#fffefa" stroke="#b45309" stroke-opacity="0.18"/>
<text x="88" y="400" font-family="Noto Sans TC, PingFang TC, sans-serif" font-size="15" font-weight="700" fill="#17211f">五數彙整</text>
<rect x="266" y="376" width="176" height="58" rx="14" fill="#fffefa" stroke="#b45309" stroke-opacity="0.18"/>
<text x="278" y="400" font-family="Noto Sans TC, PingFang TC, sans-serif" font-size="15" font-weight="700" fill="#17211f">視覺化</text>
<rect x="456" y="376" width="176" height="58" rx="14" fill="#fffefa" stroke="#b45309" stroke-opacity="0.18"/>
<text x="468" y="400" font-family="Noto Sans TC, PingFang TC, sans-serif" font-size="15" font-weight="700" fill="#17211f">資料摘要技術</text>
<rect x="646" y="376" width="176" height="58" rx="14" fill="#fffefa" stroke="#b45309" stroke-opacity="0.18"/>
<text x="658" y="400" font-family="Noto Sans TC, PingFang TC, sans-serif" font-size="15" font-weight="700" fill="#17211f">箱形圖</text>
<rect x="836" y="376" width="176" height="58" rx="14" fill="#fffefa" stroke="#b45309" stroke-opacity="0.18"/>
<text x="848" y="400" font-family="Noto Sans TC, PingFang TC, sans-serif" font-size="15" font-weight="700" fill="#17211f">Boxplot</text>
<rect x="54" y="488" width="1172" height="216" rx="22" fill="#e3ecff" stroke="#2563eb" stroke-opacity="0.22"/>
<text x="76" y="522" font-family="Noto Sans TC, PingFang TC, sans-serif" font-size="20" font-weight="800" fill="#2563eb">公式/指標 (10)</text>
<rect x="76" y="542" width="176" height="58" rx="14" fill="#fffefa" stroke="#2563eb" stroke-opacity="0.18"/>
<text x="88" y="566" font-family="Noto Sans TC, PingFang TC, sans-serif" font-size="15" font-weight="700" fill="#17211f">不平衡</text>
<rect x="266" y="542" width="176" height="58" rx="14" fill="#fffefa" stroke="#2563eb" stroke-opacity="0.18"/>
<text x="278" y="566" font-family="Noto Sans TC, PingFang TC, sans-serif" font-size="15" font-weight="700" fill="#17211f">直方圖</text>
<rect x="456" y="542" width="176" height="58" rx="14" fill="#fffefa" stroke="#2563eb" stroke-opacity="0.18"/>
<text x="468" y="566" font-family="Noto Sans TC, PingFang TC, sans-serif" font-size="15" font-weight="700" fill="#17211f">變異</text>
<rect x="646" y="542" width="176" height="58" rx="14" fill="#fffefa" stroke="#2563eb" stroke-opacity="0.18"/>
<text x="658" y="566" font-family="Noto Sans TC, PingFang TC, sans-serif" font-size="15" font-weight="700" fill="#17211f">Accuracy</text>
<rect x="836" y="542" width="176" height="58" rx="14" fill="#fffefa" stroke="#2563eb" stroke-opacity="0.18"/>
<text x="848" y="566" font-family="Noto Sans TC, PingFang TC, sans-serif" font-size="15" font-weight="700" fill="#17211f">ETL</text>
<rect x="1026" y="542" width="176" height="58" rx="14" fill="#fffefa" stroke="#2563eb" stroke-opacity="0.18"/>
<text x="1038" y="566" font-family="Noto Sans TC, PingFang TC, sans-serif" font-size="15" font-weight="700" fill="#17211f">IQR</text>
<rect x="76" y="614" width="176" height="58" rx="14" fill="#fffefa" stroke="#2563eb" stroke-opacity="0.18"/>
<text x="88" y="638" font-family="Noto Sans TC, PingFang TC, sans-serif" font-size="15" font-weight="700" fill="#17211f">Median</text>
<rect x="266" y="614" width="176" height="58" rx="14" fill="#fffefa" stroke="#2563eb" stroke-opacity="0.18"/>
<text x="278" y="638" font-family="Noto Sans TC, PingFang TC, sans-serif" font-size="15" font-weight="700" fill="#17211f">Mode</text>
<rect x="456" y="614" width="176" height="58" rx="14" fill="#fffefa" stroke="#2563eb" stroke-opacity="0.18"/>
<text x="468" y="638" font-family="Noto Sans TC, PingFang TC, sans-serif" font-size="15" font-weight="700" fill="#17211f">Range</text>
<rect x="646" y="614" width="176" height="58" rx="14" fill="#fffefa" stroke="#2563eb" stroke-opacity="0.18"/>
<text x="658" y="638" font-family="Noto Sans TC, PingFang TC, sans-serif" font-size="15" font-weight="700" fill="#17211f">Std</text>
<rect x="54" y="726" width="1172" height="144" rx="22" fill="#efe7ff" stroke="#7c3aed" stroke-opacity="0.22"/>
<text x="76" y="760" font-family="Noto Sans TC, PingFang TC, sans-serif" font-size="20" font-weight="800" fill="#7c3aed">工具/API (5)</text>
<rect x="76" y="780" width="176" height="58" rx="14" fill="#fffefa" stroke="#7c3aed" stroke-opacity="0.18"/>
<text x="88" y="804" font-family="Noto Sans TC, PingFang TC, sans-serif" font-size="15" font-weight="700" fill="#17211f">型別</text>
<rect x="266" y="780" width="176" height="58" rx="14" fill="#fffefa" stroke="#7c3aed" stroke-opacity="0.18"/>
<text x="278" y="804" font-family="Noto Sans TC, PingFang TC, sans-serif" font-size="15" font-weight="700" fill="#17211f">重複</text>
<rect x="456" y="780" width="176" height="58" rx="14" fill="#fffefa" stroke="#7c3aed" stroke-opacity="0.18"/>
<text x="468" y="804" font-family="Noto Sans TC, PingFang TC, sans-serif" font-size="15" font-weight="700" fill="#17211f">推論統計分界</text>
<rect x="646" y="780" width="176" height="58" rx="14" fill="#fffefa" stroke="#7c3aed" stroke-opacity="0.18"/>
<text x="658" y="804" font-family="Noto Sans TC, PingFang TC, sans-serif" font-size="15" font-weight="700" fill="#17211f">numpy</text>
<rect x="836" y="780" width="176" height="58" rx="14" fill="#fffefa" stroke="#7c3aed" stroke-opacity="0.18"/>
<text x="848" y="804" font-family="Noto Sans TC, PingFang TC, sans-serif" font-size="15" font-weight="700" fill="#17211f">PR-AUC</text>
</svg>