<svg xmlns="http://www.w3.org/2000/svg" width="1280" height="1174" viewBox="0 0 1280 1174" role="img" aria-label="L22201 數據收集與清理 考點資訊圖表">
<rect width="1280" height="1174" fill="#fffaf0"/>
<rect x="24" y="24" width="1232" height="1126" rx="30" fill="#ffffff" stroke="#d9d3c7"/>
<text x="54" y="78" font-family="Noto Sans TC, PingFang TC, sans-serif" font-size="30" font-weight="800" fill="#17211f">L22201 數據收集與清理</text>
<text x="54" y="116" font-family="Noto Sans TC, PingFang TC, sans-serif" font-size="18" fill="#65716d">科目二：大數據處理分析與應用 · 31 個名詞 · 依考點屬性分群</text>
<rect x="54" y="156" width="1172" height="144" rx="22" fill="#fff1d6" stroke="#b45309" stroke-opacity="0.22"/>
<text x="76" y="190" font-family="Noto Sans TC, PingFang TC, sans-serif" font-size="20" font-weight="800" fill="#b45309">資料/特徵 (6)</text>
<rect x="76" y="210" width="176" height="58" rx="14" fill="#fffefa" stroke="#b45309" stroke-opacity="0.18"/>
<text x="88" y="234" font-family="Noto Sans TC, PingFang TC, sans-serif" font-size="15" font-weight="700" fill="#17211f">資料清洗</text>
<rect x="266" y="210" width="176" height="58" rx="14" fill="#fffefa" stroke="#b45309" stroke-opacity="0.18"/>
<text x="278" y="234" font-family="Noto Sans TC, PingFang TC, sans-serif" font-size="15" font-weight="700" fill="#17211f">數據收集</text>
<rect x="456" y="210" width="176" height="58" rx="14" fill="#fffefa" stroke="#b45309" stroke-opacity="0.18"/>
<text x="468" y="234" font-family="Noto Sans TC, PingFang TC, sans-serif" font-size="15" font-weight="700" fill="#17211f">標準化</text>
<rect x="646" y="210" width="176" height="58" rx="14" fill="#fffefa" stroke="#b45309" stroke-opacity="0.18"/>
<text x="658" y="234" font-family="Noto Sans TC, PingFang TC, sans-serif" font-size="15" font-weight="700" fill="#17211f">離群值</text>
<rect x="836" y="210" width="176" height="58" rx="14" fill="#fffefa" stroke="#b45309" stroke-opacity="0.18"/>
<text x="848" y="234" font-family="Noto Sans TC, PingFang TC, sans-serif" font-size="15" font-weight="700" fill="#17211f">domain rule</text>
<rect x="1026" y="210" width="176" height="58" rx="14" fill="#fffefa" stroke="#b45309" stroke-opacity="0.18"/>
<text x="1038" y="234" font-family="Noto Sans TC, PingFang TC, sans-serif" font-size="15" font-weight="700" fill="#17211f">isna</text>
<rect x="54" y="322" width="1172" height="288" rx="22" fill="#efe7ff" stroke="#7c3aed" stroke-opacity="0.22"/>
<text x="76" y="356" font-family="Noto Sans TC, PingFang TC, sans-serif" font-size="20" font-weight="800" fill="#7c3aed">工具/API (16)</text>
<rect x="76" y="376" width="176" height="58" rx="14" fill="#fffefa" stroke="#7c3aed" stroke-opacity="0.18"/>
<text x="88" y="400" font-family="Noto Sans TC, PingFang TC, sans-serif" font-size="15" font-weight="700" fill="#17211f">半結構化</text>
<rect x="266" y="376" width="176" height="58" rx="14" fill="#fffefa" stroke="#7c3aed" stroke-opacity="0.18"/>
<text x="278" y="400" font-family="Noto Sans TC, PingFang TC, sans-serif" font-size="15" font-weight="700" fill="#17211f">非結構化</text>
<rect x="456" y="376" width="176" height="58" rx="14" fill="#fffefa" stroke="#7c3aed" stroke-opacity="0.18"/>
<text x="468" y="400" font-family="Noto Sans TC, PingFang TC, sans-serif" font-size="15" font-weight="700" fill="#17211f">重複資料偵測</text>
<rect x="646" y="376" width="176" height="58" rx="14" fill="#fffefa" stroke="#7c3aed" stroke-opacity="0.18"/>
<text x="658" y="400" font-family="Noto Sans TC, PingFang TC, sans-serif" font-size="15" font-weight="700" fill="#17211f">缺值處理</text>
<rect x="836" y="376" width="176" height="58" rx="14" fill="#fffefa" stroke="#7c3aed" stroke-opacity="0.18"/>
<text x="848" y="400" font-family="Noto Sans TC, PingFang TC, sans-serif" font-size="15" font-weight="700" fill="#17211f">清理</text>
<rect x="1026" y="376" width="176" height="58" rx="14" fill="#fffefa" stroke="#7c3aed" stroke-opacity="0.18"/>
<text x="1038" y="400" font-family="Noto Sans TC, PingFang TC, sans-serif" font-size="15" font-weight="700" fill="#17211f">資料清理</text>
<rect x="76" y="448" width="176" height="58" rx="14" fill="#fffefa" stroke="#7c3aed" stroke-opacity="0.18"/>
<text x="88" y="472" font-family="Noto Sans TC, PingFang TC, sans-serif" font-size="15" font-weight="700" fill="#17211f">數據收集與清理</text>
<rect x="266" y="448" width="176" height="58" rx="14" fill="#fffefa" stroke="#7c3aed" stroke-opacity="0.18"/>
<text x="278" y="472" font-family="Noto Sans TC, PingFang TC, sans-serif" font-size="15" font-weight="700" fill="#17211f">模糊匹配</text>
<rect x="456" y="448" width="176" height="58" rx="14" fill="#fffefa" stroke="#7c3aed" stroke-opacity="0.18"/>
<text x="468" y="472" font-family="Noto Sans TC, PingFang TC, sans-serif" font-size="15" font-weight="700" fill="#17211f">agg 輸出欄結構 — Seri</text>
<text x="468" y="492" font-family="Noto Sans TC, PingFang TC, sans-serif" font-size="15" font-weight="700" fill="#17211f">es</text>
<rect x="646" y="448" width="176" height="58" rx="14" fill="#fffefa" stroke="#7c3aed" stroke-opacity="0.18"/>
<text x="658" y="472" font-family="Noto Sans TC, PingFang TC, sans-serif" font-size="15" font-weight="700" fill="#17211f">DataFrame 差異</text>
<rect x="836" y="448" width="176" height="58" rx="14" fill="#fffefa" stroke="#7c3aed" stroke-opacity="0.18"/>
<text x="848" y="472" font-family="Noto Sans TC, PingFang TC, sans-serif" font-size="15" font-weight="700" fill="#17211f">dropna</text>
<rect x="1026" y="448" width="176" height="58" rx="14" fill="#fffefa" stroke="#7c3aed" stroke-opacity="0.18"/>
<text x="1038" y="472" font-family="Noto Sans TC, PingFang TC, sans-serif" font-size="15" font-weight="700" fill="#17211f">fillna</text>
<rect x="76" y="520" width="176" height="58" rx="14" fill="#fffefa" stroke="#7c3aed" stroke-opacity="0.18"/>
<text x="88" y="544" font-family="Noto Sans TC, PingFang TC, sans-serif" font-size="15" font-weight="700" fill="#17211f">groupby</text>
<rect x="266" y="520" width="176" height="58" rx="14" fill="#fffefa" stroke="#7c3aed" stroke-opacity="0.18"/>
<text x="278" y="544" font-family="Noto Sans TC, PingFang TC, sans-serif" font-size="15" font-weight="700" fill="#17211f">numpy</text>
<rect x="456" y="520" width="176" height="58" rx="14" fill="#fffefa" stroke="#7c3aed" stroke-opacity="0.18"/>
<text x="468" y="544" font-family="Noto Sans TC, PingFang TC, sans-serif" font-size="15" font-weight="700" fill="#17211f">pandas</text>
<rect x="646" y="520" width="176" height="58" rx="14" fill="#fffefa" stroke="#7c3aed" stroke-opacity="0.18"/>
<text x="658" y="544" font-family="Noto Sans TC, PingFang TC, sans-serif" font-size="15" font-weight="700" fill="#17211f">pandas groupby</text>
<rect x="54" y="632" width="1172" height="144" rx="22" fill="#ffe3ea" stroke="#be123c" stroke-opacity="0.22"/>
<text x="76" y="666" font-family="Noto Sans TC, PingFang TC, sans-serif" font-size="20" font-weight="800" fill="#be123c">流程/架構 (4)</text>
<rect x="76" y="686" width="176" height="58" rx="14" fill="#fffefa" stroke="#be123c" stroke-opacity="0.18"/>
<text x="88" y="710" font-family="Noto Sans TC, PingFang TC, sans-serif" font-size="15" font-weight="700" fill="#17211f">ELT</text>
<rect x="266" y="686" width="176" height="58" rx="14" fill="#fffefa" stroke="#be123c" stroke-opacity="0.18"/>
<text x="278" y="710" font-family="Noto Sans TC, PingFang TC, sans-serif" font-size="15" font-weight="700" fill="#17211f">ELT 流程概念</text>
<rect x="456" y="686" width="176" height="58" rx="14" fill="#fffefa" stroke="#be123c" stroke-opacity="0.18"/>
<text x="468" y="710" font-family="Noto Sans TC, PingFang TC, sans-serif" font-size="15" font-weight="700" fill="#17211f">ETL</text>
<rect x="646" y="686" width="176" height="58" rx="14" fill="#fffefa" stroke="#be123c" stroke-opacity="0.18"/>
<text x="658" y="710" font-family="Noto Sans TC, PingFang TC, sans-serif" font-size="15" font-weight="700" fill="#17211f">ETL vs ELT 流程概念</text>
<rect x="54" y="798" width="1172" height="144" rx="22" fill="#e8eaee" stroke="#374151" stroke-opacity="0.22"/>
<text x="76" y="832" font-family="Noto Sans TC, PingFang TC, sans-serif" font-size="20" font-weight="800" fill="#374151">風險/治理 (4)</text>
<rect x="76" y="852" width="176" height="58" rx="14" fill="#fffefa" stroke="#374151" stroke-opacity="0.18"/>
<text x="88" y="876" font-family="Noto Sans TC, PingFang TC, sans-serif" font-size="15" font-weight="700" fill="#17211f">處理策略</text>
<rect x="266" y="852" width="176" height="58" rx="14" fill="#fffefa" stroke="#374151" stroke-opacity="0.18"/>
<text x="278" y="876" font-family="Noto Sans TC, PingFang TC, sans-serif" font-size="15" font-weight="700" fill="#17211f">MAR</text>
<rect x="456" y="852" width="176" height="58" rx="14" fill="#fffefa" stroke="#374151" stroke-opacity="0.18"/>
<text x="468" y="876" font-family="Noto Sans TC, PingFang TC, sans-serif" font-size="15" font-weight="700" fill="#17211f">MCAR / MAR / MNAR</text>
<rect x="646" y="852" width="176" height="58" rx="14" fill="#fffefa" stroke="#374151" stroke-opacity="0.18"/>
<text x="658" y="876" font-family="Noto Sans TC, PingFang TC, sans-serif" font-size="15" font-weight="700" fill="#17211f">MNAR</text>
<rect x="54" y="964" width="1172" height="144" rx="22" fill="#eef2f7" stroke="#64748b" stroke-opacity="0.22"/>
<text x="76" y="998" font-family="Noto Sans TC, PingFang TC, sans-serif" font-size="20" font-weight="800" fill="#64748b">概念 (1)</text>
<rect x="76" y="1018" width="176" height="58" rx="14" fill="#fffefa" stroke="#64748b" stroke-opacity="0.18"/>
<text x="88" y="1042" font-family="Noto Sans TC, PingFang TC, sans-serif" font-size="15" font-weight="700" fill="#17211f">drop_duplicates</text>
</svg>