<svg xmlns="http://www.w3.org/2000/svg" width="1280" height="1102" viewBox="0 0 1280 1102" role="img" aria-label="L23102 線性代數之機器學習基礎應用 考點資訊圖表">
<rect width="1280" height="1102" fill="#fffaf0"/>
<rect x="24" y="24" width="1232" height="1054" rx="30" fill="#ffffff" stroke="#d9d3c7"/>
<text x="54" y="78" font-family="Noto Sans TC, PingFang TC, sans-serif" font-size="30" font-weight="800" fill="#17211f">L23102 線性代數之機器學習基礎應用</text>
<text x="54" y="116" font-family="Noto Sans TC, PingFang TC, sans-serif" font-size="18" fill="#65716d">科目三：機器學習技術與應用 · 22 個名詞 · 依考點屬性分群</text>
<rect x="54" y="156" width="1172" height="216" rx="22" fill="#dff8f3" stroke="#0f766e" stroke-opacity="0.22"/>
<text x="76" y="190" font-family="Noto Sans TC, PingFang TC, sans-serif" font-size="20" font-weight="800" fill="#0f766e">模型/演算法 (11)</text>
<rect x="76" y="210" width="176" height="58" rx="14" fill="#fffefa" stroke="#0f766e" stroke-opacity="0.18"/>
<text x="88" y="234" font-family="Noto Sans TC, PingFang TC, sans-serif" font-size="15" font-weight="700" fill="#17211f">主成分分析</text>
<rect x="266" y="210" width="176" height="58" rx="14" fill="#fffefa" stroke="#0f766e" stroke-opacity="0.18"/>
<text x="278" y="234" font-family="Noto Sans TC, PingFang TC, sans-serif" font-size="15" font-weight="700" fill="#17211f">主題模型</text>
<rect x="456" y="210" width="176" height="58" rx="14" fill="#fffefa" stroke="#0f766e" stroke-opacity="0.18"/>
<text x="468" y="234" font-family="Noto Sans TC, PingFang TC, sans-serif" font-size="15" font-weight="700" fill="#17211f">降維</text>
<rect x="646" y="210" width="176" height="58" rx="14" fill="#fffefa" stroke="#0f766e" stroke-opacity="0.18"/>
<text x="658" y="234" font-family="Noto Sans TC, PingFang TC, sans-serif" font-size="15" font-weight="700" fill="#17211f">特徵值</text>
<rect x="836" y="210" width="176" height="58" rx="14" fill="#fffefa" stroke="#0f766e" stroke-opacity="0.18"/>
<text x="848" y="234" font-family="Noto Sans TC, PingFang TC, sans-serif" font-size="15" font-weight="700" fill="#17211f">線性判別分析</text>
<rect x="1026" y="210" width="176" height="58" rx="14" fill="#fffefa" stroke="#0f766e" stroke-opacity="0.18"/>
<text x="1038" y="234" font-family="Noto Sans TC, PingFang TC, sans-serif" font-size="15" font-weight="700" fill="#17211f">機器學習</text>
<rect x="76" y="282" width="176" height="58" rx="14" fill="#fffefa" stroke="#0f766e" stroke-opacity="0.18"/>
<text x="88" y="306" font-family="Noto Sans TC, PingFang TC, sans-serif" font-size="15" font-weight="700" fill="#17211f">變異</text>
<rect x="266" y="282" width="176" height="58" rx="14" fill="#fffefa" stroke="#0f766e" stroke-opacity="0.18"/>
<text x="278" y="306" font-family="Noto Sans TC, PingFang TC, sans-serif" font-size="15" font-weight="700" fill="#17211f">PCA</text>
<rect x="456" y="282" width="176" height="58" rx="14" fill="#fffefa" stroke="#0f766e" stroke-opacity="0.18"/>
<text x="468" y="306" font-family="Noto Sans TC, PingFang TC, sans-serif" font-size="15" font-weight="700" fill="#17211f">PCA vs t-SNE</text>
<rect x="646" y="282" width="176" height="58" rx="14" fill="#fffefa" stroke="#0f766e" stroke-opacity="0.18"/>
<text x="658" y="306" font-family="Noto Sans TC, PingFang TC, sans-serif" font-size="15" font-weight="700" fill="#17211f">t-SNE</text>
<rect x="836" y="282" width="176" height="58" rx="14" fill="#fffefa" stroke="#0f766e" stroke-opacity="0.18"/>
<text x="848" y="306" font-family="Noto Sans TC, PingFang TC, sans-serif" font-size="15" font-weight="700" fill="#17211f">TF-IDF</text>
<rect x="54" y="394" width="1172" height="144" rx="22" fill="#fff1d6" stroke="#b45309" stroke-opacity="0.22"/>
<text x="76" y="428" font-family="Noto Sans TC, PingFang TC, sans-serif" font-size="20" font-weight="800" fill="#b45309">資料/特徵 (3)</text>
<rect x="76" y="448" width="176" height="58" rx="14" fill="#fffefa" stroke="#b45309" stroke-opacity="0.18"/>
<text x="88" y="472" font-family="Noto Sans TC, PingFang TC, sans-serif" font-size="15" font-weight="700" fill="#17211f">推薦系統</text>
<rect x="266" y="448" width="176" height="58" rx="14" fill="#fffefa" stroke="#b45309" stroke-opacity="0.18"/>
<text x="278" y="472" font-family="Noto Sans TC, PingFang TC, sans-serif" font-size="15" font-weight="700" fill="#17211f">標準化</text>
<rect x="456" y="448" width="176" height="58" rx="14" fill="#fffefa" stroke="#b45309" stroke-opacity="0.18"/>
<text x="468" y="472" font-family="Noto Sans TC, PingFang TC, sans-serif" font-size="15" font-weight="700" fill="#17211f">NMF</text>
<rect x="54" y="560" width="1172" height="144" rx="22" fill="#e3ecff" stroke="#2563eb" stroke-opacity="0.22"/>
<text x="76" y="594" font-family="Noto Sans TC, PingFang TC, sans-serif" font-size="20" font-weight="800" fill="#2563eb">公式/指標 (2)</text>
<rect x="76" y="614" width="176" height="58" rx="14" fill="#fffefa" stroke="#2563eb" stroke-opacity="0.18"/>
<text x="88" y="638" font-family="Noto Sans TC, PingFang TC, sans-serif" font-size="15" font-weight="700" fill="#17211f">視覺化</text>
<rect x="266" y="614" width="176" height="58" rx="14" fill="#fffefa" stroke="#2563eb" stroke-opacity="0.18"/>
<text x="278" y="638" font-family="Noto Sans TC, PingFang TC, sans-serif" font-size="15" font-weight="700" fill="#17211f">UMAP</text>
<rect x="54" y="726" width="1172" height="144" rx="22" fill="#efe7ff" stroke="#7c3aed" stroke-opacity="0.22"/>
<text x="76" y="760" font-family="Noto Sans TC, PingFang TC, sans-serif" font-size="20" font-weight="800" fill="#7c3aed">工具/API (5)</text>
<rect x="76" y="780" width="176" height="58" rx="14" fill="#fffefa" stroke="#7c3aed" stroke-opacity="0.18"/>
<text x="88" y="804" font-family="Noto Sans TC, PingFang TC, sans-serif" font-size="15" font-weight="700" fill="#17211f">降維方法選擇陷阱對照</text>
<rect x="266" y="780" width="176" height="58" rx="14" fill="#fffefa" stroke="#7c3aed" stroke-opacity="0.18"/>
<text x="278" y="804" font-family="Noto Sans TC, PingFang TC, sans-serif" font-size="15" font-weight="700" fill="#17211f">深度學習</text>
<rect x="456" y="780" width="176" height="58" rx="14" fill="#fffefa" stroke="#7c3aed" stroke-opacity="0.18"/>
<text x="468" y="804" font-family="Noto Sans TC, PingFang TC, sans-serif" font-size="15" font-weight="700" fill="#17211f">fit_transform</text>
<rect x="646" y="780" width="176" height="58" rx="14" fill="#fffefa" stroke="#7c3aed" stroke-opacity="0.18"/>
<text x="658" y="804" font-family="Noto Sans TC, PingFang TC, sans-serif" font-size="15" font-weight="700" fill="#17211f">numpy</text>
<rect x="836" y="780" width="176" height="58" rx="14" fill="#fffefa" stroke="#7c3aed" stroke-opacity="0.18"/>
<text x="848" y="804" font-family="Noto Sans TC, PingFang TC, sans-serif" font-size="15" font-weight="700" fill="#17211f">sklearn</text>
<rect x="54" y="892" width="1172" height="144" rx="22" fill="#ffe3ea" stroke="#be123c" stroke-opacity="0.22"/>
<text x="76" y="926" font-family="Noto Sans TC, PingFang TC, sans-serif" font-size="20" font-weight="800" fill="#be123c">流程/架構 (1)</text>
<rect x="76" y="946" width="176" height="58" rx="14" fill="#fffefa" stroke="#be123c" stroke-opacity="0.18"/>
<text x="88" y="970" font-family="Noto Sans TC, PingFang TC, sans-serif" font-size="15" font-weight="700" fill="#17211f">線性代數之機器學習基礎應用</text>
</svg>