<svg xmlns="http://www.w3.org/2000/svg" width="1280" height="1174" viewBox="0 0 1280 1174" role="img" aria-label="L23402 演算法偏見與公平性 考點資訊圖表">
<rect width="1280" height="1174" fill="#fffaf0"/>
<rect x="24" y="24" width="1232" height="1126" rx="30" fill="#ffffff" stroke="#d9d3c7"/>
<text x="54" y="78" font-family="Noto Sans TC, PingFang TC, sans-serif" font-size="30" font-weight="800" fill="#17211f">L23402 演算法偏見與公平性</text>
<text x="54" y="116" font-family="Noto Sans TC, PingFang TC, sans-serif" font-size="18" fill="#65716d">科目三：機器學習技術與應用 · 24 個名詞 · 依考點屬性分群</text>
<rect x="54" y="156" width="1172" height="144" rx="22" fill="#dff8f3" stroke="#0f766e" stroke-opacity="0.22"/>
<text x="76" y="190" font-family="Noto Sans TC, PingFang TC, sans-serif" font-size="20" font-weight="800" fill="#0f766e">模型/演算法 (2)</text>
<rect x="76" y="210" width="176" height="58" rx="14" fill="#fffefa" stroke="#0f766e" stroke-opacity="0.18"/>
<text x="88" y="234" font-family="Noto Sans TC, PingFang TC, sans-serif" font-size="15" font-weight="700" fill="#17211f">Overfitting</text>
<rect x="266" y="210" width="176" height="58" rx="14" fill="#fffefa" stroke="#0f766e" stroke-opacity="0.18"/>
<text x="278" y="234" font-family="Noto Sans TC, PingFang TC, sans-serif" font-size="15" font-weight="700" fill="#17211f">Transformer</text>
<rect x="54" y="322" width="1172" height="144" rx="22" fill="#fff1d6" stroke="#b45309" stroke-opacity="0.22"/>
<text x="76" y="356" font-family="Noto Sans TC, PingFang TC, sans-serif" font-size="20" font-weight="800" fill="#b45309">資料/特徵 (2)</text>
<rect x="76" y="376" width="176" height="58" rx="14" fill="#fffefa" stroke="#b45309" stroke-opacity="0.18"/>
<text x="88" y="400" font-family="Noto Sans TC, PingFang TC, sans-serif" font-size="15" font-weight="700" fill="#17211f">正規化</text>
<rect x="266" y="376" width="176" height="58" rx="14" fill="#fffefa" stroke="#b45309" stroke-opacity="0.18"/>
<text x="278" y="400" font-family="Noto Sans TC, PingFang TC, sans-serif" font-size="15" font-weight="700" fill="#17211f">詞嵌入</text>
<rect x="54" y="488" width="1172" height="216" rx="22" fill="#e3ecff" stroke="#2563eb" stroke-opacity="0.22"/>
<text x="76" y="522" font-family="Noto Sans TC, PingFang TC, sans-serif" font-size="20" font-weight="800" fill="#2563eb">公式/指標 (7)</text>
<rect x="76" y="542" width="176" height="58" rx="14" fill="#fffefa" stroke="#2563eb" stroke-opacity="0.18"/>
<text x="88" y="566" font-family="Noto Sans TC, PingFang TC, sans-serif" font-size="15" font-weight="700" fill="#17211f">公平性</text>
<rect x="266" y="542" width="176" height="58" rx="14" fill="#fffefa" stroke="#2563eb" stroke-opacity="0.18"/>
<text x="278" y="566" font-family="Noto Sans TC, PingFang TC, sans-serif" font-size="15" font-weight="700" fill="#17211f">公平性指標</text>
<rect x="456" y="542" width="176" height="58" rx="14" fill="#fffefa" stroke="#2563eb" stroke-opacity="0.18"/>
<text x="468" y="566" font-family="Noto Sans TC, PingFang TC, sans-serif" font-size="15" font-weight="700" fill="#17211f">演算法偏見與公平性</text>
<rect x="646" y="542" width="176" height="58" rx="14" fill="#fffefa" stroke="#2563eb" stroke-opacity="0.18"/>
<text x="658" y="566" font-family="Noto Sans TC, PingFang TC, sans-serif" font-size="15" font-weight="700" fill="#17211f">Demographic Parity</text>
<rect x="836" y="542" width="176" height="58" rx="14" fill="#fffefa" stroke="#2563eb" stroke-opacity="0.18"/>
<text x="848" y="566" font-family="Noto Sans TC, PingFang TC, sans-serif" font-size="15" font-weight="700" fill="#17211f">Equal Opportunity</text>
<rect x="1026" y="542" width="176" height="58" rx="14" fill="#fffefa" stroke="#2563eb" stroke-opacity="0.18"/>
<text x="1038" y="566" font-family="Noto Sans TC, PingFang TC, sans-serif" font-size="15" font-weight="700" fill="#17211f">Equalized Odds</text>
<rect x="76" y="614" width="176" height="58" rx="14" fill="#fffefa" stroke="#2563eb" stroke-opacity="0.18"/>
<text x="88" y="638" font-family="Noto Sans TC, PingFang TC, sans-serif" font-size="15" font-weight="700" fill="#17211f">TPR</text>
<rect x="54" y="726" width="1172" height="144" rx="22" fill="#ffe3ea" stroke="#be123c" stroke-opacity="0.22"/>
<text x="76" y="760" font-family="Noto Sans TC, PingFang TC, sans-serif" font-size="20" font-weight="800" fill="#be123c">流程/架構 (1)</text>
<rect x="76" y="780" width="176" height="58" rx="14" fill="#fffefa" stroke="#be123c" stroke-opacity="0.18"/>
<text x="88" y="804" font-family="Noto Sans TC, PingFang TC, sans-serif" font-size="15" font-weight="700" fill="#17211f">FPR</text>
<rect x="54" y="892" width="1172" height="216" rx="22" fill="#e8eaee" stroke="#374151" stroke-opacity="0.22"/>
<text x="76" y="926" font-family="Noto Sans TC, PingFang TC, sans-serif" font-size="20" font-weight="800" fill="#374151">風險/治理 (12)</text>
<rect x="76" y="946" width="176" height="58" rx="14" fill="#fffefa" stroke="#374151" stroke-opacity="0.18"/>
<text x="88" y="970" font-family="Noto Sans TC, PingFang TC, sans-serif" font-size="15" font-weight="700" fill="#17211f">演算法偏見</text>
<rect x="266" y="946" width="176" height="58" rx="14" fill="#fffefa" stroke="#374151" stroke-opacity="0.18"/>
<text x="278" y="970" font-family="Noto Sans TC, PingFang TC, sans-serif" font-size="15" font-weight="700" fill="#17211f">隱式偏誤</text>
<rect x="456" y="946" width="176" height="58" rx="14" fill="#fffefa" stroke="#374151" stroke-opacity="0.18"/>
<text x="468" y="970" font-family="Noto Sans TC, PingFang TC, sans-serif" font-size="15" font-weight="700" fill="#17211f">AI 偏見三類</text>
<rect x="646" y="946" width="176" height="58" rx="14" fill="#fffefa" stroke="#374151" stroke-opacity="0.18"/>
<text x="658" y="970" font-family="Noto Sans TC, PingFang TC, sans-serif" font-size="15" font-weight="700" fill="#17211f">AI 偏見三類:Sampling </text>
<text x="658" y="990" font-family="Noto Sans TC, PingFang TC, sans-serif" font-size="15" font-weight="700" fill="#17211f">/ Label / Feature </text>
<rect x="836" y="946" width="176" height="58" rx="14" fill="#fffefa" stroke="#374151" stroke-opacity="0.18"/>
<text x="848" y="970" font-family="Noto Sans TC, PingFang TC, sans-serif" font-size="15" font-weight="700" fill="#17211f">AIF360</text>
<rect x="1026" y="946" width="176" height="58" rx="14" fill="#fffefa" stroke="#374151" stroke-opacity="0.18"/>
<text x="1038" y="970" font-family="Noto Sans TC, PingFang TC, sans-serif" font-size="15" font-weight="700" fill="#17211f">Embedding 偏見</text>
<rect x="76" y="1018" width="176" height="58" rx="14" fill="#fffefa" stroke="#374151" stroke-opacity="0.18"/>
<text x="88" y="1042" font-family="Noto Sans TC, PingFang TC, sans-serif" font-size="15" font-weight="700" fill="#17211f">Embedding 偏見與隱式偏誤</text>
<rect x="266" y="1018" width="176" height="58" rx="14" fill="#fffefa" stroke="#374151" stroke-opacity="0.18"/>
<text x="278" y="1042" font-family="Noto Sans TC, PingFang TC, sans-serif" font-size="15" font-weight="700" fill="#17211f">Fairlearn</text>
<rect x="456" y="1018" width="176" height="58" rx="14" fill="#fffefa" stroke="#374151" stroke-opacity="0.18"/>
<text x="468" y="1042" font-family="Noto Sans TC, PingFang TC, sans-serif" font-size="15" font-weight="700" fill="#17211f">Feature Bias</text>
<rect x="646" y="1018" width="176" height="58" rx="14" fill="#fffefa" stroke="#374151" stroke-opacity="0.18"/>
<text x="658" y="1042" font-family="Noto Sans TC, PingFang TC, sans-serif" font-size="15" font-weight="700" fill="#17211f">Label</text>
<rect x="836" y="1018" width="176" height="58" rx="14" fill="#fffefa" stroke="#374151" stroke-opacity="0.18"/>
<text x="848" y="1042" font-family="Noto Sans TC, PingFang TC, sans-serif" font-size="15" font-weight="700" fill="#17211f">Label Bias</text>
<rect x="1026" y="1018" width="176" height="58" rx="14" fill="#fffefa" stroke="#374151" stroke-opacity="0.18"/>
<text x="1038" y="1042" font-family="Noto Sans TC, PingFang TC, sans-serif" font-size="15" font-weight="700" fill="#17211f">Sampling</text>
</svg>